<?xml version="1.0" encoding="utf-8"?>
<!-- Generator: Adobe Illustrator 22.1.0, SVG Export Plug-In . SVG Version: 6.00 Build 0)  -->
<svg version="1.1" id="图层_1" xmlns="http://www.w3.org/2000/svg" xmlns:xlink="http://www.w3.org/1999/xlink" x="0px" y="0px"
	 viewBox="0 0 16 16" style="enable-background:new 0 0 16 16;" xml:space="preserve">
<style type="text/css">
	.st0{fill:#FFFFFF;}
</style>
<path d="M13.4,12.9c-0.5,0-1,0-1.5,0c0-0.2,0-0.3,0-0.4c-0.2,0.1-0.4,0.2-0.7,0.3c-1.9,0.7-4-0.6-4.2-2.7c-0.2-2,1.4-3.7,3.4-3.6
	c1.7,0.1,3,1.5,3,3.2c0,1,0,2.1,0,3.1C13.4,12.9,13.4,12.9,13.4,12.9z M8.5,9.7c0,0.9,0.8,1.7,1.7,1.7c0.9,0,1.7-0.8,1.7-1.7
	c0-0.9-0.8-1.7-1.7-1.7C9.3,8,8.5,8.8,8.5,9.7z"/>
<path d="M7.1,7.2C6.8,7.6,6.5,8.1,6.4,8.6c0,0.1-0.1,0.1-0.1,0.1c-0.6,0-1.2,0-1.8,0c-0.1,0-0.1,0-0.2,0c0,1.4,0,2.8,0,4.2
	c-0.5,0-1,0-1.5,0c0-0.1,0-0.1,0-0.2c0-2.1,0-4.2,0-6.2c0-1.7,1.2-3.1,2.9-3.4c0.1,0,0.2,0,0.3,0c0.9,0,1.8,0,2.7,0c0,0.5,0,1,0,1.5
	c-0.1,0-0.1,0-0.2,0c-0.7,0-1.5,0-2.2,0C5,4.7,4.2,5.5,4.2,6.6c0,0.2,0,0.4,0,0.6C5.2,7.2,6.1,7.2,7.1,7.2z"/>
<path class="st0" d="M8.5,9.7C8.5,8.8,9.3,8,10.2,8c0.9,0,1.7,0.8,1.7,1.7c0,0.9-0.8,1.7-1.7,1.7C9.3,11.4,8.5,10.7,8.5,9.7z"/>
</svg>
